<svg width="27" height="22" viewBox="0 0 27 22" fill="none" xmlns="http://www.w3.org/2000/svg">
<g clip-path="url(#clip0_1541_41393)">
<path d="M8.49094 21.9691C18.6796 21.9691 24.2524 13.5279 24.2524 6.20765C24.2524 5.96789 24.2524 5.72921 24.2362 5.49161C25.3204 4.70744 26.2562 3.73648 26.9999 2.62422C25.9889 3.0722 24.9164 3.36599 23.8183 3.49577C24.9747 2.80348 25.8402 1.71461 26.2537 0.431818C25.1663 1.07707 23.9767 1.53181 22.7361 1.77642C21.9009 0.888316 20.7963 0.30024 19.5932 0.103188C18.3901 -0.0938633 17.1556 0.111097 16.0807 0.686351C15.0058 1.26161 14.1505 2.17509 13.6471 3.28543C13.1436 4.39578 13.0202 5.64108 13.2959 6.82865C11.0935 6.71824 8.93892 6.14591 6.97208 5.14881C5.00523 4.15171 3.27006 2.75214 1.8792 1.04094C1.17082 2.26043 0.953855 3.70407 1.27248 5.07791C1.59111 6.45175 2.42138 7.6525 3.59423 8.43569C2.71268 8.40956 1.85034 8.17175 1.08 7.74233C1.08 7.76501 1.08 7.78877 1.08 7.81253C1.08035 9.09148 1.52308 10.3309 2.3331 11.3207C3.14312 12.3104 4.27056 12.9895 5.52419 13.2427C4.70865 13.4652 3.85298 13.4977 3.02291 13.3378C3.37689 14.4385 4.06605 15.401 4.99399 16.0908C5.92193 16.7805 7.04225 17.163 8.19826 17.1847C6.2367 18.7264 3.81354 19.5633 1.31868 19.5607C0.877934 19.5599 0.43762 19.5332 0 19.4808C2.53328 21.1065 5.4809 21.9688 8.49094 21.9648" fill="#557AFF"/>
</g>
<defs>
<clipPath id="clip0_1541_41393">
<rect width="27" height="22" fill="white"/>
</clipPath>
</defs>
</svg>
