<svg width="101" height="24" viewBox="0 0 101 24" fill="none" xmlns="http://www.w3.org/2000/svg">
<path d="M15.8665 0V8.84535C15.8665 12.4631 12.944 15.4121 9.28618 15.5475H9.02345V15.1479L8.98591 6.74226L0 6.70548V6.61855C0 6.56003 0.0017042 6.50319 0.00341028 6.44635C0.139897 2.91891 3.05729 0.0886039 6.67077 0H15.8665Z" fill="#C22CC5"/>
<path d="M0 8.71666V24C3.82844 24 6.9318 20.959 6.9318 17.2076V8.71666H0Z" fill="#557AFF"/>
<path d="M32.6593 0.00330492C34.103 -0.0276383 35.5429 0.158861 36.9283 0.556221C38.0219 0.874171 39.0356 1.41084 39.9047 2.13203C40.6771 2.79134 41.276 3.62187 41.6509 4.5538C42.038 5.53806 42.2304 6.58495 42.2178 7.63907C42.2309 8.72989 42.0288 9.813 41.6225 10.8294C41.234 11.7863 40.6226 12.6419 39.8367 13.3286C38.9692 14.0665 37.9536 14.6201 36.8546 14.9541C35.4952 15.3549 34.079 15.5415 32.6593 15.5071H29.2577V23.9998H24.6656V0.00330492H32.6593ZM32.6593 12.0624C33.403 12.0754 34.1439 11.9708 34.8534 11.7528C35.4319 11.5728 35.9638 11.2729 36.4124 10.8736C36.8288 10.4868 37.1455 10.0093 37.3365 9.48028C37.5477 8.89242 37.6513 8.27296 37.6427 7.65013C37.6511 7.05616 37.5473 6.46575 37.3365 5.90844C37.1415 5.4019 36.8268 4.94729 36.4181 4.58145C35.9714 4.19433 35.4431 3.90745 34.8704 3.74102C34.1527 3.53574 33.4071 3.43877 32.6593 3.4535H29.2577V12.0624H32.6593Z" fill="#011554"/>
<path d="M64.6697 23.9986H61.1829C60.8398 24.0126 60.5023 23.9091 60.2273 23.7055C59.982 23.5171 59.7896 23.2696 59.6685 22.9867L57.8581 18.0929H47.7998L45.9894 22.9867C45.8845 23.262 45.7046 23.5031 45.4697 23.6834C45.1994 23.8978 44.8605 24.0096 44.5142 23.9986H40.9938L50.5547 0H55.1479L64.6697 23.9986ZM56.707 14.93L53.7565 6.95074C53.6113 6.5821 53.4604 6.16185 53.3039 5.68999C53.1475 5.21813 52.991 4.69281 52.8345 4.11404C52.6893 4.66701 52.5384 5.21997 52.3819 5.69552C52.2255 6.17107 52.0746 6.61896 51.9293 6.98392L48.9957 14.93H56.707Z" fill="#011554"/>
<path d="M50.5555 0H55.3141L64.6697 23.9986H61.2575C60.9196 24.0126 60.3882 23.9227 60.1175 23.719C59.8759 23.5305 59.6864 23.2829 59.5671 22.9998L57.7302 17.7999L56.7097 14.9999L50.5555 0Z" fill="#557AFF"/>
<path d="M83.039 0.0014804L73.2397 23.9998H69.1623L59.363 0.0014804H62.9874C63.3292 -0.0135204 63.6662 0.0858327 63.9439 0.28349C64.1934 0.47254 64.3866 0.724725 64.5032 1.01339L70.225 15.6447C70.4152 16.1202 70.5941 16.64 70.7843 17.2095C70.9745 17.7791 71.1255 18.3763 71.2821 18.9956C71.4163 18.3763 71.5618 17.7791 71.7184 17.2095C71.8623 16.6788 72.036 16.1564 72.2385 15.6447L77.9268 1.01339C78.0417 0.732874 78.2359 0.490994 78.4861 0.316666C78.7587 0.10183 79.0998 -0.00991909 79.4481 0.0014804H83.039Z" fill="#011554"/>
<path d="M73.242 23.9998H69.1639L59.363 0.0014804H62.9874C63.3293 -0.0135204 63.6669 0.0858327 63.9446 0.28349C64.1942 0.47254 64.3875 0.724725 64.504 1.01339L70.2268 15.6447L73.242 23.9998Z" fill="#C22CC5"/>
<path d="M90.0805 3.55717V10.1854H98.6868V13.6156H90.0805V20.4372H101V23.9998H85.4882V0H101V3.54612L90.0805 3.55717Z" fill="#011554"/>
</svg>
