<svg width="1440" height="857" viewBox="0 0 1440 857" fill="none" xmlns="http://www.w3.org/2000/svg">
<circle cx="910.5" cy="278.5" r="211.5" fill="#557AFF"/>
<circle cx="1144.5" cy="515.5" r="188.5" fill="#C22CC5"/>
<path d="M1452 1C1406.98 107.505 1281.86 314.223 1077 253C859.5 188 671 288 686.743 415.968C696.295 493.607 858.845 526.036 1084.38 530.511C1286.94 534.53 1371.92 589.985 1333.96 684.742C1296 779.5 1074 864.5 522.688 701.321C275.5 646 135.56 690.769 -42.5 739.5" stroke="#011554" stroke-dasharray="9 9"/>
<path d="M1193.38 78.6326L1196.29 77.103C1196.43 77.0251 1196.6 76.9902 1196.77 77.0024C1196.94 77.0145 1197.1 77.0732 1197.23 77.1717C1197.37 77.2703 1197.47 77.4048 1197.54 77.5601C1197.6 77.7153 1197.62 77.8852 1197.59 78.0505L1197.04 81.2913C1197.02 81.4348 1197.03 81.582 1197.07 81.7204C1197.12 81.8588 1197.19 81.9842 1197.3 82.0858L1199.65 84.3813C1199.77 84.4984 1199.86 84.6467 1199.9 84.8094C1199.94 84.9721 1199.93 85.1428 1199.88 85.3022C1199.83 85.4616 1199.73 85.6034 1199.61 85.7116C1199.48 85.8197 1199.32 85.8899 1199.16 85.9143L1195.9 86.3864C1195.76 86.4075 1195.62 86.4632 1195.5 86.5489C1195.38 86.6346 1195.29 86.7476 1195.22 86.8783L1193.77 89.8264C1193.69 89.9768 1193.58 90.1034 1193.44 90.192C1193.29 90.2806 1193.13 90.3275 1192.96 90.3275C1192.79 90.3275 1192.63 90.2806 1192.49 90.192C1192.35 90.1034 1192.23 89.9768 1192.16 89.8264L1190.7 86.8783C1190.64 86.7476 1190.54 86.6345 1190.42 86.5488C1190.31 86.4631 1190.17 86.4073 1190.02 86.3864L1186.77 85.9143C1186.6 85.8899 1186.45 85.8197 1186.32 85.7116C1186.19 85.6034 1186.1 85.4616 1186.04 85.3022C1185.99 85.1428 1185.99 84.9721 1186.03 84.8094C1186.07 84.6467 1186.15 84.4984 1186.27 84.3813L1188.63 82.0858C1188.73 81.9842 1188.81 81.8588 1188.85 81.7204C1188.9 81.582 1188.91 81.4348 1188.88 81.2913L1188.33 78.0505C1188.3 77.8852 1188.32 77.7153 1188.38 77.5601C1188.45 77.4048 1188.55 77.2703 1188.69 77.1717C1188.82 77.0732 1188.98 77.0145 1189.15 77.0024C1189.32 76.9902 1189.48 77.0251 1189.63 77.103L1192.54 78.6326C1192.67 78.7 1192.81 78.7352 1192.96 78.7352C1193.1 78.7352 1193.25 78.7 1193.38 78.6326V78.6326Z" fill="#C22CC5"/>
<path d="M607.375 654.633L610.286 653.103C610.434 653.025 610.602 652.99 610.769 653.002C610.936 653.015 611.097 653.073 611.233 653.172C611.368 653.27 611.474 653.405 611.537 653.56C611.6 653.715 611.619 653.885 611.591 654.05L611.04 657.291C611.016 657.435 611.026 657.582 611.071 657.72C611.117 657.859 611.195 657.984 611.299 658.086L613.654 660.381C613.774 660.498 613.858 660.647 613.899 660.809C613.939 660.972 613.933 661.143 613.881 661.302C613.829 661.462 613.734 661.603 613.606 661.712C613.478 661.82 613.322 661.89 613.156 661.914L609.901 662.386C609.756 662.407 609.619 662.463 609.501 662.549C609.384 662.635 609.288 662.748 609.224 662.878L607.768 665.826C607.694 665.977 607.579 666.103 607.437 666.192C607.295 666.281 607.13 666.328 606.962 666.328C606.795 666.328 606.63 666.281 606.488 666.192C606.345 666.103 606.231 665.977 606.157 665.826L604.7 662.878C604.636 662.748 604.541 662.635 604.423 662.549C604.305 662.463 604.168 662.407 604.024 662.386L600.769 661.914C600.603 661.89 600.447 661.82 600.319 661.712C600.191 661.603 600.096 661.462 600.044 661.302C599.992 661.143 599.986 660.972 600.026 660.809C600.066 660.647 600.151 660.498 600.271 660.381L602.626 658.086C602.73 657.984 602.808 657.859 602.853 657.72C602.898 657.582 602.909 657.435 602.885 657.291L602.329 654.05C602.301 653.885 602.319 653.715 602.382 653.56C602.446 653.405 602.551 653.27 602.687 653.172C602.822 653.073 602.983 653.015 603.15 653.002C603.317 652.99 603.485 653.025 603.633 653.103L606.544 654.633C606.672 654.7 606.815 654.735 606.96 654.735C607.104 654.735 607.247 654.7 607.375 654.633V654.633Z" fill="#C22CC5"/>
<g filter="url(#filter0_d_2502_1134)">
<path d="M860 760C860 755.029 864.029 751 869 751H902.215C907.185 751 911.215 755.029 911.215 760V793.215C911.215 798.185 907.185 802.215 902.215 802.215H869C864.029 802.215 860 798.185 860 793.215V760Z" fill="#8484DF"/>
<path d="M894.983 776.031H875.683C875.405 776.031 875.152 775.91 874.983 775.693C874.814 775.488 874.742 775.198 874.802 774.933L876.165 768.419C876.612 766.308 877.516 764.366 881.099 764.366H889.579C893.162 764.366 894.067 766.32 894.513 768.419L895.876 774.945C895.936 775.21 895.864 775.488 895.695 775.705C895.514 775.91 895.261 776.031 894.983 776.031ZM876.793 774.221H893.862L892.728 768.793C892.39 767.213 891.992 766.175 889.567 766.175H881.099C878.674 766.175 878.276 767.213 877.939 768.793L876.793 774.221Z" fill="white"/>
<path d="M894.939 789.3H892.671C890.717 789.3 890.343 788.178 890.102 787.442L889.86 786.718C889.547 785.801 889.51 785.681 888.425 785.681H882.249C881.163 785.681 881.091 785.886 880.813 786.718L880.572 787.442C880.319 788.19 879.957 789.3 878.002 789.3H875.735C874.782 789.3 873.865 788.902 873.226 788.202C872.598 787.514 872.297 786.598 872.381 785.681L873.057 778.335C873.238 776.344 873.768 774.221 877.641 774.221H893.033C896.905 774.221 897.424 776.344 897.617 778.335L898.292 785.681C898.377 786.598 898.075 787.514 897.448 788.202C896.808 788.902 895.892 789.3 894.939 789.3ZM882.249 783.871H888.425C890.62 783.871 891.139 784.848 891.573 786.127L891.827 786.875C892.032 787.49 892.032 787.502 892.683 787.502H894.951C895.397 787.502 895.819 787.321 896.121 786.996C896.41 786.682 896.543 786.284 896.507 785.862L895.831 778.515C895.675 776.887 895.482 776.043 893.057 776.043H877.641C875.204 776.043 875.011 776.887 874.866 778.515L874.191 785.862C874.154 786.284 874.287 786.682 874.577 786.996C874.866 787.321 875.3 787.502 875.747 787.502H878.014C878.666 787.502 878.666 787.49 878.871 786.887L879.112 786.151C879.414 785.186 879.86 783.871 882.249 783.871Z" fill="white"/>
<path d="M875.681 772.412H874.475C873.98 772.412 873.57 772.002 873.57 771.507C873.57 771.012 873.98 770.602 874.475 770.602H875.681C876.176 770.602 876.586 771.012 876.586 771.507C876.586 772.002 876.176 772.412 875.681 772.412Z" fill="white"/>
<path d="M896.189 772.412H894.983C894.488 772.412 894.078 772.002 894.078 771.507C894.078 771.012 894.488 770.602 894.983 770.602H896.189C896.684 770.602 897.094 771.012 897.094 771.507C897.094 772.002 896.684 772.412 896.189 772.412Z" fill="white"/>
<path d="M885.334 768.793C884.84 768.793 884.43 768.383 884.43 767.888V765.476C884.43 764.981 884.84 764.571 885.334 764.571C885.829 764.571 886.239 764.981 886.239 765.476V767.888C886.239 768.383 885.829 768.793 885.334 768.793Z" fill="white"/>
<path d="M887.141 768.793H883.522C883.027 768.793 882.617 768.383 882.617 767.888C882.617 767.394 883.027 766.983 883.522 766.983H887.141C887.635 766.983 888.045 767.394 888.045 767.888C888.045 768.383 887.635 768.793 887.141 768.793Z" fill="white"/>
<path d="M881.719 780.856H878.1C877.605 780.856 877.195 780.446 877.195 779.951C877.195 779.456 877.605 779.046 878.1 779.046H881.719C882.213 779.046 882.624 779.456 882.624 779.951C882.624 780.446 882.213 780.856 881.719 780.856Z" fill="white"/>
<path d="M892.57 780.856H888.952C888.457 780.856 888.047 780.446 888.047 779.951C888.047 779.456 888.457 779.046 888.952 779.046H892.57C893.065 779.046 893.475 779.456 893.475 779.951C893.475 780.446 893.065 780.856 892.57 780.856Z" fill="white"/>
</g>
<circle cx="815" cy="276" r="5" fill="#557AFF"/>
<circle cx="748" cy="225" r="5" fill="white"/>
<circle cx="1341.5" cy="332.5" r="4.5" fill="#557AFF"/>
<circle cx="629.5" cy="76.5" r="4.5" fill="#557AFF"/>
<circle cx="895.5" cy="101.5" r="2.5" fill="white"/>
<circle cx="1299.5" cy="516.5" r="3.5" fill="white"/>
<circle cx="918.5" cy="622.5" r="5.5" fill="#557AFF"/>
<g filter="url(#filter1_d_2502_1134)">
<path d="M339 661C339 656.029 343.029 652 348 652H381.215C386.185 652 390.215 656.029 390.215 661V694.215C390.215 699.185 386.185 703.215 381.215 703.215H348C343.029 703.215 339 699.185 339 694.215V661Z" fill="#FDD948"/>
<path d="M369.991 689.489H358.682C354.792 689.489 352.18 686.877 352.18 682.986V677.332C352.18 673.849 354.328 671.327 357.665 670.909C357.981 670.863 358.332 670.829 358.682 670.829H369.991C370.263 670.829 370.613 670.841 370.975 670.897C374.311 671.282 376.494 673.815 376.494 677.332V682.986C376.494 686.877 373.882 689.489 369.991 689.489ZM358.682 672.526C358.411 672.526 358.151 672.548 357.891 672.582C355.403 672.899 353.876 674.708 353.876 677.332V682.986C353.876 685.904 355.765 687.793 358.682 687.793H369.991C372.909 687.793 374.798 685.904 374.798 682.986V677.332C374.798 674.686 373.248 672.865 370.738 672.571C370.466 672.526 370.229 672.526 369.991 672.526H358.682Z" fill="white"/>
<path d="M357.767 672.594C357.496 672.594 357.247 672.469 357.077 672.243C356.885 671.983 356.863 671.644 357.01 671.361C357.202 670.976 357.473 670.603 357.824 670.264L361.499 666.577C363.377 664.711 366.43 664.711 368.307 666.577L370.286 668.579C371.123 669.404 371.632 670.513 371.689 671.689C371.7 671.949 371.598 672.198 371.406 672.367C371.214 672.537 370.954 672.616 370.705 672.571C370.479 672.537 370.241 672.526 369.992 672.526H358.683C358.412 672.526 358.152 672.548 357.892 672.582C357.858 672.594 357.813 672.594 357.767 672.594ZM359.656 670.829H369.789C369.642 670.445 369.404 670.094 369.088 669.778L367.097 667.765C365.887 666.566 363.908 666.566 362.687 667.765L359.656 670.829Z" fill="white"/>
<path d="M375.643 683.269H372.251C370.532 683.269 369.141 681.878 369.141 680.159C369.141 678.44 370.532 677.049 372.251 677.049H375.643C376.107 677.049 376.491 677.434 376.491 677.897C376.491 678.361 376.107 678.746 375.643 678.746H372.251C371.47 678.746 370.837 679.379 370.837 680.159C370.837 680.94 371.47 681.573 372.251 681.573H375.643C376.107 681.573 376.491 681.957 376.491 682.421C376.491 682.885 376.107 683.269 375.643 683.269Z" fill="white"/>
</g>
<g filter="url(#filter2_d_2502_1134)">
<path d="M1363 110C1363 105.582 1366.58 102 1371 102H1393C1397.42 102 1401 105.582 1401 110V131.998C1401 136.416 1397.42 139.998 1393 139.998H1371C1366.58 139.998 1363 136.416 1363 131.998V110Z" fill="#FF9046"/>
<path d="M1390.21 129.948C1390.02 129.948 1389.83 129.87 1389.69 129.732L1383.44 123.479C1383.16 123.195 1383.16 122.725 1383.44 122.44L1391.02 114.864C1391.2 114.678 1391.49 114.609 1391.74 114.678C1392 114.756 1392.19 114.962 1392.25 115.217C1392.44 116.05 1392.54 116.981 1392.54 118.059V123.94C1392.54 126.655 1391.97 128.488 1390.73 129.732C1390.59 129.87 1390.39 129.899 1390.21 129.948ZM1385 122.96L1390.15 128.115C1390.77 127.164 1391.06 125.812 1391.06 123.94V118.059C1391.06 117.657 1391.06 117.285 1391.03 116.932L1385 122.96Z" fill="white"/>
<path d="M1376.38 131.271C1376.32 131.271 1376.27 131.261 1376.21 131.252C1372.97 130.507 1371.46 128.184 1371.46 123.94V118.059C1371.46 112.737 1373.73 110.463 1379.06 110.463H1384.94C1389.18 110.463 1391.5 111.973 1392.25 115.217C1392.31 115.462 1392.23 115.727 1392.05 115.903L1376.9 131.055C1376.76 131.193 1376.58 131.271 1376.38 131.271ZM1379.06 111.934C1374.54 111.934 1372.93 113.541 1372.93 118.059V123.94C1372.93 127.341 1373.87 129.046 1376.16 129.723L1390.71 115.168C1390.04 112.884 1388.33 111.943 1384.93 111.943H1379.06V111.934Z" fill="white"/>
<path d="M1384.93 131.536H1379.05C1377.97 131.536 1377.05 131.448 1376.21 131.252C1375.95 131.193 1375.74 130.997 1375.67 130.742C1375.59 130.487 1375.67 130.213 1375.86 130.017L1383.43 122.44C1383.72 122.156 1384.19 122.156 1384.47 122.44L1390.73 128.693C1390.86 128.831 1390.94 129.017 1390.94 129.213C1390.94 129.409 1390.86 129.595 1390.73 129.732C1389.48 130.967 1387.65 131.536 1384.93 131.536ZM1377.93 130.026C1378.28 130.056 1378.65 130.066 1379.05 130.066H1384.93C1386.81 130.066 1388.16 129.772 1389.11 129.154L1383.95 123.999L1377.93 130.026Z" fill="white"/>
<path d="M1379.17 122.283C1378.56 122.283 1377.94 122.058 1377.45 121.597C1375.89 120.117 1375.26 118.49 1375.64 116.903C1376.01 115.276 1377.43 114.178 1379.17 114.178C1380.92 114.178 1382.34 115.276 1382.71 116.903C1383.07 118.5 1382.45 120.117 1380.89 121.597C1380.41 122.048 1379.79 122.283 1379.17 122.283ZM1377.07 117.226C1376.75 118.559 1377.65 119.755 1378.47 120.529C1378.87 120.911 1379.49 120.911 1379.88 120.529C1380.68 119.765 1381.59 118.569 1381.28 117.226C1381.02 116.06 1379.98 115.638 1379.17 115.638C1378.37 115.638 1377.34 116.06 1377.07 117.226Z" fill="white"/>
<path d="M1379.2 118.54C1378.66 118.54 1378.22 118.099 1378.22 117.559C1378.22 117.02 1378.65 116.579 1379.2 116.579H1379.21C1379.75 116.579 1380.19 117.02 1380.19 117.559C1380.19 118.099 1379.74 118.54 1379.2 118.54Z" fill="white"/>
</g>
<g filter="url(#filter3_d_2502_1134)">
<path d="M712 456C712 452.686 714.686 450 718 450H746C749.314 450 752 452.686 752 456V484C752 487.314 749.314 490 746 490H718C714.686 490 712 487.314 712 484V456Z" fill="#FDA0D9"/>
<path d="M724.313 474.409C724.133 474.409 723.952 474.343 723.809 474.2C723.533 473.924 723.533 473.467 723.809 473.19L735.19 461.809C735.466 461.533 735.923 461.533 736.199 461.809C736.475 462.086 736.475 462.543 736.199 462.819L724.818 474.209C724.685 474.343 724.494 474.409 724.313 474.409Z" fill="white"/>
<path d="M731.142 476.695C730.961 476.695 730.78 476.628 730.637 476.486C730.361 476.209 730.361 475.752 730.637 475.476L731.78 474.333C732.056 474.057 732.513 474.057 732.789 474.333C733.065 474.609 733.065 475.067 732.789 475.343L731.646 476.486C731.513 476.619 731.332 476.695 731.142 476.695Z" fill="white"/>
<path d="M733.704 474.133C733.523 474.133 733.342 474.067 733.199 473.924C732.923 473.647 732.923 473.19 733.199 472.914L735.476 470.638C735.752 470.362 736.209 470.362 736.485 470.638C736.761 470.914 736.761 471.371 736.485 471.647L734.209 473.924C734.076 474.057 733.885 474.133 733.704 474.133Z" fill="white"/>
<path d="M731.142 480.238C730.209 480.238 729.275 479.667 728.142 478.533L723.466 473.857C721.189 471.581 721.199 470.114 723.494 467.819L729.818 461.495C732.113 459.2 733.58 459.19 735.856 461.467L740.532 466.143C742.809 468.419 742.799 469.886 740.504 472.181L734.18 478.505C733.028 479.657 732.085 480.238 731.142 480.238ZM732.856 461.19C732.361 461.19 731.732 461.6 730.828 462.505L724.504 468.828C723.599 469.733 723.189 470.362 723.189 470.847C723.189 471.343 723.57 471.943 724.475 472.847L729.151 477.524C730.056 478.428 730.647 478.809 731.142 478.809C731.142 478.809 731.142 478.809 731.151 478.809C731.647 478.809 732.266 478.4 733.17 477.495L739.494 471.171C740.399 470.267 740.809 469.638 740.809 469.152C740.809 468.657 740.428 468.057 739.523 467.152L734.847 462.476C733.951 461.571 733.351 461.19 732.856 461.19Z" fill="white"/>
<path d="M741.52 480.238H722.472C722.082 480.238 721.758 479.914 721.758 479.524C721.758 479.133 722.082 478.809 722.472 478.809H741.52C741.91 478.809 742.234 479.133 742.234 479.524C742.234 479.914 741.91 480.238 741.52 480.238Z" fill="white"/>
</g>
<defs>
<filter id="filter0_d_2502_1134" x="814" y="705" width="151.219" height="151.215" filterUnits="userSpaceOnUse" color-interpolation-filters="sRGB">
<feFlood flood-opacity="0" result="BackgroundImageFix"/>
<feColorMatrix in="SourceAlpha" type="matrix" values="0 0 0 0 0 0 0 0 0 0 0 0 0 0 0 0 0 0 127 0" result="hardAlpha"/>
<feOffset dx="4" dy="4"/>
<feGaussianBlur stdDeviation="25"/>
<feComposite in2="hardAlpha" operator="out"/>
<feColorMatrix type="matrix" values="0 0 0 0 0.227451 0 0 0 0 0.180392 0 0 0 0 0.521569 0 0 0 0.25 0"/>
<feBlend mode="normal" in2="BackgroundImageFix" result="effect1_dropShadow_2502_1134"/>
<feBlend mode="normal" in="SourceGraphic" in2="effect1_dropShadow_2502_1134" result="shape"/>
</filter>
<filter id="filter1_d_2502_1134" x="293" y="606" width="151.219" height="151.215" filterUnits="userSpaceOnUse" color-interpolation-filters="sRGB">
<feFlood flood-opacity="0" result="BackgroundImageFix"/>
<feColorMatrix in="SourceAlpha" type="matrix" values="0 0 0 0 0 0 0 0 0 0 0 0 0 0 0 0 0 0 127 0" result="hardAlpha"/>
<feOffset dx="4" dy="4"/>
<feGaussianBlur stdDeviation="25"/>
<feComposite in2="hardAlpha" operator="out"/>
<feColorMatrix type="matrix" values="0 0 0 0 0.227451 0 0 0 0 0.180392 0 0 0 0 0.521569 0 0 0 0.15 0"/>
<feBlend mode="normal" in2="BackgroundImageFix" result="effect1_dropShadow_2502_1134"/>
<feBlend mode="normal" in="SourceGraphic" in2="effect1_dropShadow_2502_1134" result="shape"/>
</filter>
<filter id="filter2_d_2502_1134" x="1317" y="56" width="138" height="137.998" filterUnits="userSpaceOnUse" color-interpolation-filters="sRGB">
<feFlood flood-opacity="0" result="BackgroundImageFix"/>
<feColorMatrix in="SourceAlpha" type="matrix" values="0 0 0 0 0 0 0 0 0 0 0 0 0 0 0 0 0 0 127 0" result="hardAlpha"/>
<feOffset dx="4" dy="4"/>
<feGaussianBlur stdDeviation="25"/>
<feComposite in2="hardAlpha" operator="out"/>
<feColorMatrix type="matrix" values="0 0 0 0 0.227451 0 0 0 0 0.180392 0 0 0 0 0.521569 0 0 0 0.2 0"/>
<feBlend mode="normal" in2="BackgroundImageFix" result="effect1_dropShadow_2502_1134"/>
<feBlend mode="normal" in="SourceGraphic" in2="effect1_dropShadow_2502_1134" result="shape"/>
</filter>
<filter id="filter3_d_2502_1134" x="666" y="404" width="140" height="140" filterUnits="userSpaceOnUse" color-interpolation-filters="sRGB">
<feFlood flood-opacity="0" result="BackgroundImageFix"/>
<feColorMatrix in="SourceAlpha" type="matrix" values="0 0 0 0 0 0 0 0 0 0 0 0 0 0 0 0 0 0 127 0" result="hardAlpha"/>
<feOffset dx="4" dy="4"/>
<feGaussianBlur stdDeviation="25"/>
<feComposite in2="hardAlpha" operator="out"/>
<feColorMatrix type="matrix" values="0 0 0 0 0.227451 0 0 0 0 0.180392 0 0 0 0 0.521569 0 0 0 0.2 0"/>
<feBlend mode="normal" in2="BackgroundImageFix" result="effect1_dropShadow_2502_1134"/>
<feBlend mode="normal" in="SourceGraphic" in2="effect1_dropShadow_2502_1134" result="shape"/>
</filter>
</defs>
</svg>
