<svg width="56" height="56" viewBox="0 0 56 56" fill="none" xmlns="http://www.w3.org/2000/svg">
<path d="M0 9C0 4.02944 4.02944 0 9 0H47C51.9706 0 56 4.02944 56 9V47C56 51.9706 51.9706 56 47 56H9C4.02944 56 0 51.9706 0 47V9Z" fill="#5BDD73"/>
<path d="M29.8669 35.2268H26.5202C24.3335 35.2268 22.5602 33.3868 22.5602 31.1201C22.5602 30.5734 23.0135 30.1201 23.5602 30.1201C24.1069 30.1201 24.5602 30.5734 24.5602 31.1201C24.5602 32.2801 25.4402 33.2268 26.5202 33.2268H29.8669C30.7335 33.2268 31.4535 32.4534 31.4535 31.5201C31.4535 30.3601 31.0402 30.1334 30.3602 29.8934L24.9869 28.0001C23.9469 27.6401 22.5469 26.8668 22.5469 24.4801C22.5469 22.4268 24.1602 20.7734 26.1335 20.7734H29.4802C31.6669 20.7734 33.4402 22.6134 33.4402 24.8801C33.4402 25.4268 32.9869 25.8801 32.4402 25.8801C31.8935 25.8801 31.4402 25.4268 31.4402 24.8801C31.4402 23.7201 30.5602 22.7734 29.4802 22.7734H26.1335C25.2669 22.7734 24.5469 23.5468 24.5469 24.4801C24.5469 25.6401 24.9602 25.8668 25.6402 26.1068L31.0135 28.0001C32.0535 28.3601 33.4535 29.1334 33.4535 31.5201C33.4402 33.5601 31.8402 35.2268 29.8669 35.2268Z" fill="white"/>
<path d="M28 37C27.4533 37 27 36.5467 27 36V20C27 19.4533 27.4533 19 28 19C28.5467 19 29 19.4533 29 20V36C29 36.5467 28.5467 37 28 37Z" fill="white"/>
<path d="M27.9993 42.3332C20.0927 42.3332 13.666 35.9065 13.666 27.9998C13.666 20.0932 20.0927 13.6665 27.9993 13.6665C35.906 13.6665 42.3327 20.0932 42.3327 27.9998C42.3327 35.9065 35.906 42.3332 27.9993 42.3332ZM27.9993 15.6665C21.1993 15.6665 15.666 21.1998 15.666 27.9998C15.666 34.7998 21.1993 40.3332 27.9993 40.3332C34.7993 40.3332 40.3327 34.7998 40.3327 27.9998C40.3327 21.1998 34.7993 15.6665 27.9993 15.6665Z" fill="white"/>
</svg>
