<svg width="56" height="56" viewBox="0 0 56 56" fill="none" xmlns="http://www.w3.org/2000/svg">
<path d="M0 9C0 4.02944 4.02944 0 9 0H47C51.9706 0 56 4.02944 56 9V47C56 51.9706 51.9706 56 47 56H9C4.02944 56 0 51.9706 0 47V9Z" fill="#8484DF"/>
<path d="M39.1733 40.1735C38.9066 40.1735 38.6533 40.0668 38.4666 39.8802L29.9599 31.3735C29.5733 30.9868 29.5733 30.3468 29.9599 29.9602L40.2666 19.6535C40.5199 19.4002 40.9066 19.3068 41.2533 19.4002C41.5999 19.5068 41.8666 19.7868 41.9466 20.1335C42.1999 21.2668 42.3333 22.5335 42.3333 24.0002V32.0002C42.3333 35.6935 41.5599 38.1868 39.8799 39.8802C39.6933 40.0668 39.4133 40.1068 39.1733 40.1735ZM32.0799 30.6668L39.0933 37.6802C39.9333 36.3868 40.3333 34.5468 40.3333 32.0002V24.0002C40.3333 23.4535 40.3199 22.9468 40.2799 22.4668L32.0799 30.6668Z" fill="white"/>
<path d="M20.3593 41.9732C20.2793 41.9732 20.2127 41.9598 20.1327 41.9465C15.7194 40.9332 13.666 37.7732 13.666 31.9998V23.9998C13.666 16.7598 16.7593 13.6665 23.9993 13.6665H31.9993C37.7727 13.6665 40.9327 15.7198 41.946 20.1332C42.026 20.4665 41.9194 20.8265 41.6794 21.0665L21.066 41.6798C20.8793 41.8665 20.626 41.9732 20.3593 41.9732ZM23.9993 15.6665C17.8527 15.6665 15.666 17.8532 15.666 23.9998V31.9998C15.666 36.6265 16.946 38.9465 20.0527 39.8665L39.8527 20.0665C38.946 16.9598 36.6127 15.6798 31.986 15.6798H23.9993V15.6665Z" fill="white"/>
<path d="M32.0005 42.3333H24.0005C22.5338 42.3333 21.2805 42.2133 20.1338 41.9466C19.7738 41.8666 19.4938 41.5999 19.4005 41.2533C19.2938 40.9066 19.4005 40.5332 19.6538 40.2666L29.9605 29.9599C30.3472 29.5733 30.9872 29.5733 31.3738 29.9599L39.8805 38.4666C40.0672 38.6533 40.1738 38.9066 40.1738 39.1733C40.1738 39.4399 40.0672 39.6933 39.8805 39.8799C38.1872 41.5599 35.6938 42.3333 32.0005 42.3333ZM22.4672 40.2799C22.9472 40.3199 23.4538 40.3333 24.0005 40.3333H32.0005C34.5605 40.3333 36.3872 39.9333 37.6805 39.0933L30.6672 32.0799L22.4672 40.2799Z" fill="white"/>
<path d="M24.1606 29.7464C23.3206 29.7464 22.4806 29.4397 21.8139 28.8131C19.6939 26.7997 18.8406 24.5864 19.3473 22.4264C19.8539 20.2131 21.7872 18.7197 24.1606 18.7197C26.5339 18.7197 28.4673 20.2131 28.9739 22.4264C29.4673 24.5997 28.6139 26.7997 26.4939 28.8131C25.8406 29.4264 25.0006 29.7464 24.1606 29.7464ZM21.2939 22.8664C20.8672 24.6797 22.0939 26.3064 23.2006 27.3597C23.7472 27.8797 24.5872 27.8797 25.1206 27.3597C26.2139 26.3197 27.4406 24.6931 27.0272 22.8664C26.6672 21.2797 25.2539 20.7064 24.1606 20.7064C23.0672 20.7064 21.6672 21.2797 21.2939 22.8664Z" fill="white"/>
<path d="M24.2005 24.6535C23.4672 24.6535 22.8672 24.0535 22.8672 23.3201C22.8672 22.5868 23.4539 21.9868 24.2005 21.9868H24.2139C24.9472 21.9868 25.5472 22.5868 25.5472 23.3201C25.5472 24.0535 24.9339 24.6535 24.2005 24.6535Z" fill="white"/>
</svg>
