<svg width="56" height="56" viewBox="0 0 56 56" fill="none" xmlns="http://www.w3.org/2000/svg">
<path d="M0 9C0 4.02944 4.02944 0 9 0H47C51.9706 0 56 4.02944 56 9V47C56 51.9706 51.9706 56 47 56H9C4.02944 56 0 51.9706 0 47V9Z" fill="#FDD948"/>
<g clip-path="url(#clip0_1737_40009)">
<path d="M28 13C19.7157 13 13 19.7157 13 28C13 36.2843 19.7157 43 28 43C36.2843 43 43 36.2843 43 28C42.9929 19.7187 36.2813 13.0071 28 13ZM28 41.7063C20.4302 41.7063 14.2937 35.5698 14.2937 28C14.2937 20.4302 20.4302 14.2937 28 14.2937C35.5698 14.2937 41.7063 20.4302 41.7063 28C41.6992 35.5669 35.5669 41.6992 28 41.7063Z" fill="white" stroke="white" stroke-width="0.5"/>
<path d="M37.4175 25.5205C37.2983 25.3996 37.1386 25.3269 36.9692 25.3163L31.1805 24.4746L28.6207 19.2309C28.4508 18.8899 28.0365 18.7513 27.6954 18.9212C27.5613 18.9881 27.4526 19.0968 27.3857 19.2309L24.7984 24.4815L19.0304 25.3163C18.6533 25.371 18.3919 25.7211 18.4467 26.0982C18.4687 26.2498 18.5405 26.3899 18.6509 26.4961L22.8389 30.5807L21.7902 36.3487C21.7278 36.7246 21.9818 37.0799 22.3577 37.1424C22.5057 37.1669 22.6577 37.1426 22.7906 37.0731L27.9998 34.3547L33.1813 37.08C33.5091 37.2744 33.9323 37.1663 34.1267 36.8386C34.2142 36.6912 34.2436 36.5166 34.2094 36.3487L33.2227 30.5807L37.4107 26.4961C37.6821 26.2285 37.685 25.7917 37.4175 25.5205ZM31.9394 29.8424C31.7751 30.0014 31.7002 30.2313 31.7393 30.4565L32.5535 35.2033L28.2896 32.961C28.0887 32.8555 27.8488 32.8555 27.6479 32.961L23.384 35.2033L24.1981 30.4565C24.2373 30.2313 24.1624 30.0014 23.9981 29.8424L20.5483 26.4823L25.3159 25.7924C25.5403 25.7587 25.7337 25.6168 25.8333 25.4129L27.9998 21.1007L30.1317 25.4198C30.2314 25.6237 30.4248 25.7656 30.6492 25.7993L35.4168 26.4892L31.9394 29.8424Z" fill="white" stroke="white" stroke-width="0.5"/>
</g>
<defs>
<clipPath id="clip0_1737_40009">
<rect width="32" height="32" fill="white" transform="translate(12 12)"/>
</clipPath>
</defs>
</svg>
