<svg width="56" height="56" viewBox="0 0 56 56" fill="none" xmlns="http://www.w3.org/2000/svg">
<path d="M0 9C0 4.02944 4.02944 0 9 0H47C51.9706 0 56 4.02944 56 9V47C56 51.9706 51.9706 56 47 56H9C4.02944 56 0 51.9706 0 47V9Z" fill="#FF9046"/>
<path d="M27.9992 12.9414C23.2933 12.9414 19.5286 16.7061 19.5286 21.412V25.1767C17.9286 25.1767 16.7051 26.4002 16.7051 28.0002V40.2355C16.7051 41.8355 17.9286 43.0591 19.5286 43.0591H36.4698C38.0698 43.0591 39.2933 41.8355 39.2933 40.2355V28.0002C39.2933 26.4002 38.0698 25.1767 36.4698 25.1767V21.412C36.4698 16.7061 32.7051 12.9414 27.9992 12.9414ZM37.411 28.0002V40.2355C37.411 40.8002 37.0345 41.1767 36.4698 41.1767H19.5286C18.9639 41.1767 18.5874 40.8002 18.5874 40.2355V28.0002C18.5874 27.4355 18.9639 27.0591 19.5286 27.0591H20.4698H35.5286H36.4698C37.0345 27.0591 37.411 27.4355 37.411 28.0002ZM21.411 25.1767V21.412C21.411 17.7414 24.3286 14.8238 27.9992 14.8238C31.6698 14.8238 34.5874 17.7414 34.5874 21.412V25.1767H21.411Z" fill="white"/>
<path d="M27.9993 29.8828C26.3993 29.8828 25.1758 31.1063 25.1758 32.7063C25.1758 33.9299 25.9287 34.9652 27.0581 35.3416V37.4122C27.0581 37.9769 27.4346 38.3534 27.9993 38.3534C28.564 38.3534 28.9405 37.9769 28.9405 37.4122V35.3416C30.0699 34.9652 30.8228 33.9299 30.8228 32.7063C30.8228 31.1063 29.5993 29.8828 27.9993 29.8828ZM27.9993 33.6475C27.4346 33.6475 27.0581 33.271 27.0581 32.7063C27.0581 32.1416 27.4346 31.7652 27.9993 31.7652C28.564 31.7652 28.9405 32.1416 28.9405 32.7063C28.9405 33.271 28.564 33.6475 27.9993 33.6475Z" fill="white"/>
</svg>
