<svg width="56" height="56" viewBox="0 0 56 56" fill="none" xmlns="http://www.w3.org/2000/svg">
<path d="M0 9C0 4.02944 4.02944 0 9 0H47C51.9706 0 56 4.02944 56 9V47C56 51.9706 51.9706 56 47 56H9C4.02944 56 0 51.9706 0 47V9Z" fill="#D584E1"/>
<path d="M28 33C25.24 33 23 30.76 23 28C23 25.24 25.24 23 28 23C30.76 23 33 25.24 33 28C33 30.76 30.76 33 28 33ZM28 25C26.3467 25 25 26.3467 25 28C25 29.6533 26.3467 31 28 31C29.6533 31 31 29.6533 31 28C31 26.3467 29.6533 25 28 25Z" fill="white"/>
<path d="M32.2794 41.5869C31.9993 41.5869 31.7193 41.5469 31.4394 41.4802C30.6127 41.2536 29.9193 40.7336 29.4793 40.0002L29.3193 39.7336C28.5327 38.3736 27.4527 38.3736 26.666 39.7336L26.5194 39.9869C26.0793 40.7336 25.386 41.2669 24.5593 41.4802C23.7193 41.7069 22.8527 41.5869 22.1193 41.1469L19.826 39.8269C19.0127 39.3602 18.426 38.6002 18.1727 37.6802C17.9327 36.7602 18.0527 35.8136 18.5193 35.0002C18.906 34.3202 19.0127 33.7069 18.786 33.3202C18.5593 32.9336 17.986 32.7069 17.1993 32.7069C15.2527 32.7069 13.666 31.1202 13.666 29.1736V26.8269C13.666 24.8802 15.2527 23.2936 17.1993 23.2936C17.986 23.2936 18.5593 23.0669 18.786 22.6802C19.0127 22.2936 18.9193 21.6802 18.5193 21.0002C18.0527 20.1869 17.9327 19.2269 18.1727 18.3202C18.4127 17.4002 18.9993 16.6402 19.826 16.1736L22.1327 14.8536C23.6393 13.9602 25.626 14.4802 26.5327 16.0136L26.6927 16.2802C27.4794 17.6402 28.5594 17.6402 29.346 16.2802L29.4927 16.0269C30.3993 14.4802 32.386 13.9602 33.906 14.8669L36.1993 16.1869C37.0127 16.6536 37.5993 17.4136 37.8527 18.3336C38.0927 19.2536 37.9727 20.2002 37.506 21.0136C37.1193 21.6936 37.0127 22.3069 37.2393 22.6936C37.466 23.0802 38.0394 23.3069 38.826 23.3069C40.7727 23.3069 42.3594 24.8936 42.3594 26.8402V29.1869C42.3594 31.1336 40.7727 32.7202 38.826 32.7202C38.0394 32.7202 37.466 32.9469 37.2393 33.3336C37.0127 33.7202 37.106 34.3336 37.506 35.0136C37.9727 35.8269 38.106 36.7869 37.8527 37.6936C37.6127 38.6136 37.026 39.3736 36.1993 39.8402L33.8927 41.1602C33.386 41.4402 32.8393 41.5869 32.2794 41.5869ZM27.9993 36.6536C29.186 36.6536 30.2927 37.4002 31.0527 38.7202L31.1993 38.9736C31.3593 39.2536 31.626 39.4536 31.946 39.5336C32.266 39.6136 32.586 39.5736 32.8527 39.4136L35.1594 38.0802C35.506 37.8802 35.7727 37.5469 35.8793 37.1469C35.986 36.7469 35.9327 36.3336 35.7327 35.9869C34.9727 34.6802 34.8794 33.3336 35.466 32.3069C36.0527 31.2802 37.266 30.6936 38.786 30.6936C39.6393 30.6936 40.3193 30.0136 40.3193 29.1602V26.8136C40.3193 25.9736 39.6393 25.2802 38.786 25.2802C37.266 25.2802 36.0527 24.6936 35.466 23.6669C34.8794 22.6402 34.9727 21.2936 35.7327 19.9869C35.9327 19.6402 35.986 19.2269 35.8793 18.8269C35.7727 18.4269 35.5193 18.1069 35.1727 17.8936L32.866 16.5736C32.2927 16.2269 31.5327 16.4269 31.186 17.0136L31.0393 17.2669C30.2793 18.5869 29.1727 19.3336 27.986 19.3336C26.7993 19.3336 25.6927 18.5869 24.9327 17.2669L24.786 17.0002C24.4527 16.4402 23.706 16.2402 23.1327 16.5736L20.826 17.9069C20.4793 18.1069 20.2127 18.4402 20.106 18.8402C19.9993 19.2402 20.0527 19.6536 20.2527 20.0002C21.0127 21.3069 21.106 22.6536 20.5193 23.6802C19.9327 24.7069 18.7193 25.2936 17.1993 25.2936C16.346 25.2936 15.666 25.9736 15.666 26.8269V29.1736C15.666 30.0136 16.346 30.7069 17.1993 30.7069C18.7193 30.7069 19.9327 31.2936 20.5193 32.3202C21.106 33.3469 21.0127 34.6936 20.2527 36.0002C20.0527 36.3469 19.9993 36.7602 20.106 37.1602C20.2127 37.5602 20.466 37.8802 20.8127 38.0936L23.1193 39.4136C23.3993 39.5869 23.7327 39.6269 24.0393 39.5469C24.3593 39.4669 24.626 39.2536 24.7993 38.9736L24.946 38.7202C25.706 37.4136 26.8127 36.6536 27.9993 36.6536Z" fill="white"/>
</svg>
