<svg width="56" height="56" viewBox="0 0 56 56" fill="none" xmlns="http://www.w3.org/2000/svg">
<path d="M0 9C0 4.02944 4.02944 0 9 0H47C51.9706 0 56 4.02944 56 9V47C56 51.9706 51.9706 56 47 56H9C4.02944 56 0 51.9706 0 47V9Z" fill="#FDA0D9"/>
<path d="M34.666 42.3335H21.3327C16.746 42.3335 13.666 39.2535 13.666 34.6668V28.0002C13.666 23.8935 16.1993 20.9202 20.1327 20.4268C20.506 20.3735 20.9193 20.3335 21.3327 20.3335H34.666C34.986 20.3335 35.3994 20.3468 35.826 20.4135C39.7594 20.8668 42.3327 23.8535 42.3327 28.0002V34.6668C42.3327 39.2535 39.2527 42.3335 34.666 42.3335ZM21.3327 22.3335C21.0127 22.3335 20.706 22.3601 20.3993 22.4001C17.466 22.7735 15.666 24.9068 15.666 28.0002V34.6668C15.666 38.1068 17.8927 40.3335 21.3327 40.3335H34.666C38.106 40.3335 40.3327 38.1068 40.3327 34.6668V28.0002C40.3327 24.8802 38.506 22.7335 35.546 22.3868C35.226 22.3335 34.946 22.3335 34.666 22.3335H21.3327Z" fill="white"/>
<path d="M20.254 22.4133C19.934 22.4133 19.6407 22.2666 19.4407 21.9999C19.214 21.6933 19.1874 21.2933 19.3607 20.9599C19.5874 20.5066 19.9074 20.0666 20.3207 19.6666L24.654 15.3199C26.8674 13.1199 30.4674 13.1199 32.6807 15.3199L35.014 17.6799C36.0007 18.6533 36.6007 19.9599 36.6674 21.3466C36.6807 21.6533 36.5607 21.9466 36.334 22.1466C36.1074 22.3466 35.8007 22.4399 35.5074 22.3866C35.2407 22.3466 34.9607 22.3333 34.6674 22.3333H21.334C21.014 22.3333 20.7074 22.3599 20.4007 22.3999C20.3607 22.4133 20.3074 22.4133 20.254 22.4133ZM22.4807 20.3333H34.4274C34.254 19.8799 33.974 19.4666 33.6007 19.0933L31.254 16.7199C29.8274 15.3066 27.494 15.3066 26.054 16.7199L22.4807 20.3333Z" fill="white"/>
<path d="M41.3327 34.9998H37.3327C35.306 34.9998 33.666 33.3598 33.666 31.3332C33.666 29.3065 35.306 27.6665 37.3327 27.6665H41.3327C41.8793 27.6665 42.3327 28.1198 42.3327 28.6665C42.3327 29.2132 41.8793 29.6665 41.3327 29.6665H37.3327C36.4127 29.6665 35.666 30.4132 35.666 31.3332C35.666 32.2532 36.4127 32.9998 37.3327 32.9998H41.3327C41.8793 32.9998 42.3327 33.4532 42.3327 33.9998C42.3327 34.5465 41.8793 34.9998 41.3327 34.9998Z" fill="white"/>
</svg>
