<svg width="24" height="24" viewBox="0 0 24 24" fill="none" xmlns="http://www.w3.org/2000/svg">
<path d="M5.23177 10.64C5.58577 11.064 6.21577 11.122 6.63977 10.768L10.9998 7.135L10.9998 19C10.9998 19.552 11.4478 20 11.9998 20C12.5518 20 12.9998 19.552 12.9998 19L12.9998 7.135L17.3598 10.768C17.7848 11.122 18.4148 11.064 18.7678 10.64C19.1218 10.216 19.0648 9.585 18.6398 9.232L12.6398 4.232C12.5928 4.192 12.5368 4.173 12.4848 4.143C12.4438 4.119 12.4078 4.091 12.3628 4.073C12.2458 4.027 12.1238 4 11.9998 4C11.8758 4 11.7538 4.027 11.6368 4.073C11.5918 4.091 11.5558 4.119 11.5148 4.143C11.4628 4.173 11.4068 4.192 11.3598 4.232L5.35977 9.232C4.93577 9.585 4.87777 10.216 5.23177 10.64Z" fill="white"/>
<mask id="mask0_2543_55153" style="mask-type:luminance" maskUnits="userSpaceOnUse" x="5" y="4" width="14" height="16">
<path d="M5.23177 10.64C5.58577 11.064 6.21577 11.122 6.63977 10.768L10.9998 7.135L10.9998 19C10.9998 19.552 11.4478 20 11.9998 20C12.5518 20 12.9998 19.552 12.9998 19L12.9998 7.135L17.3598 10.768C17.7848 11.122 18.4148 11.064 18.7678 10.64C19.1218 10.216 19.0648 9.585 18.6398 9.232L12.6398 4.232C12.5928 4.192 12.5368 4.173 12.4848 4.143C12.4438 4.119 12.4078 4.091 12.3628 4.073C12.2458 4.027 12.1238 4 11.9998 4C11.8758 4 11.7538 4.027 11.6368 4.073C11.5918 4.091 11.5558 4.119 11.5148 4.143C11.4628 4.173 11.4068 4.192 11.3598 4.232L5.35977 9.232C4.93577 9.585 4.87777 10.216 5.23177 10.64Z" fill="white"/>
</mask>
<g mask="url(#mask0_2543_55153)">
</g>
</svg>
