<svg width="64" height="64" viewBox="0 0 64 64" fill="none" xmlns="http://www.w3.org/2000/svg">
<circle cx="32" cy="32" r="32" fill="#C22CC5"/>
<path d="M33.8669 39.2268H30.5202C28.3335 39.2268 26.5602 37.3868 26.5602 35.1201C26.5602 34.5734 27.0135 34.1201 27.5602 34.1201C28.1069 34.1201 28.5602 34.5734 28.5602 35.1201C28.5602 36.2801 29.4402 37.2268 30.5202 37.2268H33.8669C34.7335 37.2268 35.4535 36.4534 35.4535 35.5201C35.4535 34.3601 35.0402 34.1334 34.3602 33.8934L28.9869 32.0001C27.9469 31.6401 26.5469 30.8668 26.5469 28.4801C26.5469 26.4268 28.1602 24.7734 30.1335 24.7734H33.4802C35.6669 24.7734 37.4402 26.6134 37.4402 28.8801C37.4402 29.4268 36.9869 29.8801 36.4402 29.8801C35.8935 29.8801 35.4402 29.4268 35.4402 28.8801C35.4402 27.7201 34.5602 26.7734 33.4802 26.7734H30.1335C29.2669 26.7734 28.5469 27.5468 28.5469 28.4801C28.5469 29.6401 28.9602 29.8668 29.6402 30.1068L35.0135 32.0001C36.0535 32.3601 37.4535 33.1334 37.4535 35.5201C37.4402 37.5601 35.8402 39.2268 33.8669 39.2268Z" fill="white"/>
<path d="M32 41C31.4533 41 31 40.5467 31 40V24C31 23.4533 31.4533 23 32 23C32.5467 23 33 23.4533 33 24V40C33 40.5467 32.5467 41 32 41Z" fill="white"/>
<path d="M31.9974 46.3334C24.0907 46.3334 17.6641 39.9067 17.6641 32.0001C17.6641 24.0934 24.0907 17.6667 31.9974 17.6667C39.9041 17.6667 46.3307 24.0934 46.3307 32.0001C46.3307 39.9067 39.9041 46.3334 31.9974 46.3334ZM31.9974 19.6667C25.1974 19.6667 19.6641 25.2001 19.6641 32.0001C19.6641 38.8001 25.1974 44.3334 31.9974 44.3334C38.7974 44.3334 44.3307 38.8001 44.3307 32.0001C44.3307 25.2001 38.7974 19.6667 31.9974 19.6667Z" fill="white"/>
</svg>
