<svg width="64" height="64" viewBox="0 0 64 64" fill="none" xmlns="http://www.w3.org/2000/svg">
<circle cx="32" cy="32" r="32" fill="#C22CC5"/>
<path d="M31.9972 16.9414C27.2914 16.9414 23.5267 20.7061 23.5267 25.412V29.1767C21.9267 29.1767 20.7031 30.4002 20.7031 32.0002V44.2355C20.7031 45.8355 21.9267 47.0591 23.5267 47.0591H40.4678C42.0678 47.0591 43.2914 45.8355 43.2914 44.2355V32.0002C43.2914 30.4002 42.0678 29.1767 40.4678 29.1767V25.412C40.4678 20.7061 36.7031 16.9414 31.9972 16.9414ZM41.409 32.0002V44.2355C41.409 44.8002 41.0325 45.1767 40.4678 45.1767H23.5267C22.9619 45.1767 22.5855 44.8002 22.5855 44.2355V32.0002C22.5855 31.4355 22.9619 31.0591 23.5267 31.0591H24.4678H39.5267H40.4678C41.0325 31.0591 41.409 31.4355 41.409 32.0002ZM25.409 29.1767V25.412C25.409 21.7414 28.3267 18.8238 31.9972 18.8238C35.6678 18.8238 38.5855 21.7414 38.5855 25.412V29.1767H25.409Z" fill="white"/>
<path d="M31.9954 33.8828C30.3954 33.8828 29.1719 35.1063 29.1719 36.7063C29.1719 37.9299 29.9248 38.9652 31.0542 39.3416V41.4122C31.0542 41.9769 31.4307 42.3534 31.9954 42.3534C32.5601 42.3534 32.9366 41.9769 32.9366 41.4122V39.3416C34.066 38.9652 34.8189 37.9299 34.8189 36.7063C34.8189 35.1063 33.5954 33.8828 31.9954 33.8828ZM31.9954 37.6475C31.4307 37.6475 31.0542 37.271 31.0542 36.7063C31.0542 36.1416 31.4307 35.7652 31.9954 35.7652C32.5601 35.7652 32.9366 36.1416 32.9366 36.7063C32.9366 37.271 32.5601 37.6475 31.9954 37.6475Z" fill="white"/>
</svg>
