<svg width="64" height="64" viewBox="0 0 64 64" fill="none" xmlns="http://www.w3.org/2000/svg">
<circle cx="32" cy="32" r="32" fill="#C22CC5"/>
<path d="M31.1156 19.8193C31.4908 19.1082 32.5092 19.1082 32.8844 19.8193L35.547 24.8658C35.9811 25.6886 36.7723 26.2634 37.6889 26.422L43.3112 27.3948C44.1035 27.5319 44.4182 28.5005 43.8578 29.0771L39.8811 33.1688C39.2327 33.8359 38.9305 34.766 39.063 35.6868L39.8752 41.3345C39.9896 42.1304 39.1656 42.729 38.4441 42.3742L33.3237 39.8565C32.489 39.4461 31.511 39.4461 30.6763 39.8565L25.5559 42.3742C24.8344 42.729 24.0104 42.1304 24.1248 41.3345L24.937 35.6868C25.0695 34.766 24.7673 33.8359 24.1189 33.1688L20.1422 29.0771C19.5818 28.5005 19.8965 27.5319 20.6888 27.3948L26.3111 26.422C27.2277 26.2634 28.0189 25.6886 28.453 24.8658L31.1156 19.8193Z" stroke="white" stroke-width="2"/>
</svg>
